<svg width="22" height="20" viewBox="0 0 22 20" fill="none" xmlns="http://www.w3.org/2000/svg">
<path d="M20.0434 20.001H2.16837C1.12279 20.001 0.2724 19.1506 0.2724 18.1052C0.2724 17.5504 0.514008 17.0251 0.935532 16.6643C2.58315 15.2722 3.5224 13.2487 3.5224 11.1048V8.08427C3.5224 3.90276 6.92415 0.501007 11.1059 0.501007C15.2874 0.501007 18.6891 3.90276 18.6891 8.08427V11.1048C18.6891 13.2487 19.6284 15.2722 21.2653 16.6568C21.6975 17.0251 21.9391 17.5504 21.9391 18.1052C21.9391 19.1506 21.0887 20.001 20.0434 20.001ZM11.1059 2.12601C7.81996 2.12601 5.1474 4.79857 5.1474 8.08427V11.1048C5.1474 13.7273 3.99808 16.2039 1.995 17.8972C1.95711 17.9297 1.8974 17.9969 1.8974 18.1052C1.8974 18.2524 2.02098 18.376 2.16837 18.376H20.0434C20.1906 18.376 20.3141 18.2524 20.3141 18.1052C20.3141 17.9969 20.2546 17.9297 20.2187 17.8993C18.2135 16.2039 17.0641 13.7273 17.0641 11.1048V8.08427C17.0641 4.79857 14.3916 2.12601 11.1059 2.12601Z" fill="#0C0B0B"/>
</svg>
